<svg xmlns="http://www.w3.org/2000/svg" xmlns:xlink="http://www.w3.org/1999/xlink" width="440" height="125.13"><rect width="440" height="125.13" rx="5" ry="5" class="a"/><svg y="0%" x="0%"><circle cx="20" cy="20" r="6" fill="#ff5f58"/><circle cx="40" cy="20" r="6" fill="#ffbd2e"/><circle cx="60" cy="20" r="6" fill="#18c132"/></svg><svg height="65.13" viewBox="0 0 40 6.513" width="400" x="15" xmlns="http://www.w3.org/2000/svg" xmlns:xlink="http://www.w3.org/1999/xlink" y="50"><style>@keyframes k{0%{transform:translateX(0)}12.5%{transform:translateX(-120px)}13.8%{transform:translateX(-160px)}15%{transform:translateX(-200px)}16.3%{transform:translateX(-240px)}17.5%{transform:translateX(-280px)}18.8%{transform:translateX(-320px)}20%{transform:translateX(-360px)}21.3%{transform:translateX(-400px)}22.5%{transform:translateX(-440px)}23.8%{transform:translateX(-480px)}25%{transform:translateX(-520px)}30%{transform:translateX(-560px)}31.3%{transform:translateX(-600px)}32.5%{transform:translateX(-640px)}33.8%{transform:translateX(-680px)}35%{transform:translateX(-720px)}36.3%{transform:translateX(-760px)}37.5%{transform:translateX(-840px)}42.5%{transform:translateX(-880px)}43.8%{transform:translateX(-920px)}45%{transform:translateX(-960px)}46.3%{transform:translateX(-1000px)}47.5%{transform:translateX(-1040px)}48.8%{transform:translateX(-1080px)}50%{transform:translateX(-1120px)}51.2%{transform:translateX(-1160px)}51.3%{transform:translateX(-1200px)}52.5%{transform:translateX(-1240px)}57.5%{transform:translateX(-1280px)}58.8%{transform:translateX(-1320px)}60%{transform:translateX(-1360px)}to{transform:translateX(-1400px)}}.a{fill:#282d35}.f,.g,.h{fill:#eee;white-space:pre}.g,.h{fill:#d78787}.h{fill:#afd7af}</style><g font-family="Monaco,Consolas,Menlo,'Bitstream Vera Sans Mono','Powerline Symbols',monospace" font-size="1.67"><defs><symbol id="1"><text y="1.67" class="f">&lt;</text></symbol><symbol id="2"><text y="1.67" class="f">&lt;</text><text x="1.002" y="1.67" class="g">BarChart</text></symbol><symbol id="3"><text y="1.67" class="f">&lt;</text><text x="1.002" y="1.67" class="g">BarChart</text><text x="10.02" y="1.67" class="g">data</text></symbol><symbol id="4"><text y="1.67" class="f">&lt;</text><text x="1.002" y="1.67" class="g">BarChart</text><text x="10.02" y="1.67" class="g">data</text><text x="14.028" y="1.67" class="f">={</text></symbol><symbol id="5"><text y="1.67" class="f">&lt;</text><text x="1.002" y="1.67" class="g">BarChart</text><text x="10.02" y="1.67" class="g">data</text><text x="14.028" y="1.67" class="f">={</text><text x="16.032" y="1.67" class="h">my_query</text></symbol><symbol id="6"><text y="1.67" class="f">&lt;</text><text x="1.002" y="1.67" class="g">BarChart</text><text x="10.02" y="1.67" class="g">data</text><text x="14.028" y="1.67" class="f">={</text><text x="16.032" y="1.67" class="h">my_query</text><text x="24.048" y="1.67" class="f">}/&gt;</text></symbol><symbol id="a"><path fill="transparent" d="M0 0h40v3H0z"/></symbol><symbol id="b"><path fill="#6f7683" d="M0 0h1.102v2.171H0z"/></symbol></defs><path class="a" d="M0 0h40v6.513H0z"/><g style="animation-duration:8s;animation-iteration-count:infinite;animation-name:k;animation-timing-function:steps(1,end)"><svg width="1440"><svg><use xlink:href="#a"/><use xlink:href="#b" x="-.004"/></svg><svg x="40"><use xlink:href="#a"/><use xlink:href="#b" x="-.004"/></svg><svg x="80"><use xlink:href="#a"/><use xlink:href="#b" x=".996"/><use xlink:href="#1"/></svg><svg x="120"><use xlink:href="#a"/><use xlink:href="#b" x=".996"/><use xlink:href="#1"/></svg><svg x="160"><use xlink:href="#a"/><use xlink:href="#b" x=".996"/><use xlink:href="#1"/></svg><svg x="200"><use xlink:href="#a"/><use xlink:href="#b" x="1.996"/><text y="1.67" class="f">&lt;</text><text x="1.002" y="1.67" class="g">B</text></svg><svg x="240"><use xlink:href="#a"/><use xlink:href="#b" x="2.996"/><text y="1.67" class="f">&lt;</text><text x="1.002" y="1.67" class="g">Ba</text></svg><svg x="280"><use xlink:href="#a"/><use xlink:href="#b" x="3.996"/><text y="1.67" class="f">&lt;</text><text x="1.002" y="1.67" class="g">Bar</text></svg><svg x="320"><use xlink:href="#a"/><use xlink:href="#b" x="4.996"/><text y="1.67" class="f">&lt;</text><text x="1.002" y="1.67" class="g">BarC</text></svg><svg x="360"><use xlink:href="#a"/><use xlink:href="#b" x="5.996"/><text y="1.67" class="f">&lt;</text><text x="1.002" y="1.67" class="g">BarCh</text></svg><svg x="400"><use xlink:href="#a"/><use xlink:href="#b" x="6.996"/><text y="1.67" class="f">&lt;</text><text x="1.002" y="1.67" class="g">BarCha</text></svg><svg x="440"><use xlink:href="#a"/><use xlink:href="#b" x="7.996"/><text y="1.67" class="f">&lt;</text><text x="1.002" y="1.67" class="g">BarChar</text></svg><svg x="480"><use xlink:href="#a"/><use xlink:href="#b" x="8.996"/><use xlink:href="#2"/></svg><svg x="520"><use xlink:href="#a"/><use xlink:href="#b" x="9.996"/><use xlink:href="#2"/></svg><svg x="560"><use xlink:href="#a"/><use xlink:href="#b" x="10.996"/><text y="1.67" class="f">&lt;</text><text x="1.002" y="1.67" class="g">BarChart</text><text x="10.02" y="1.67" class="g">d</text></svg><svg x="600"><use xlink:href="#a"/><use xlink:href="#b" x="11.996"/><text y="1.67" class="f">&lt;</text><text x="1.002" y="1.67" class="g">BarChart</text><text x="10.02" y="1.67" class="g">da</text></svg><svg x="640"><use xlink:href="#a"/><use xlink:href="#b" x="12.996"/><text y="1.67" class="f">&lt;</text><text x="1.002" y="1.67" class="g">BarChart</text><text x="10.02" y="1.67" class="g">dat</text></svg><svg x="680"><use xlink:href="#a"/><use xlink:href="#b" x="13.996"/><use xlink:href="#3"/></svg><svg x="720"><use xlink:href="#a"/><use xlink:href="#b" x="13.996"/><use xlink:href="#3"/></svg><svg x="760"><use xlink:href="#a"/><use xlink:href="#b" x="14.996"/><text y="1.67" class="f">&lt;</text><text x="1.002" y="1.67" class="g">BarChart</text><text x="10.02" y="1.67" class="g">data</text><text x="14.028" y="1.67" class="f">=</text></svg><svg x="800"><use xlink:href="#a"/><use xlink:href="#b" x="15.996"/><use xlink:href="#4"/></svg><svg x="840"><use xlink:href="#a"/><use xlink:href="#b" x="15.996"/><use xlink:href="#4"/></svg><svg x="880"><use xlink:href="#a"/><use xlink:href="#b" x="16.996"/><text y="1.67" class="f">&lt;</text><text x="1.002" y="1.67" class="g">BarChart</text><text x="10.02" y="1.67" class="g">data</text><text x="14.028" y="1.67" class="f">={</text><text x="16.032" y="1.67" class="h">m</text></svg><svg x="920"><use xlink:href="#a"/><use xlink:href="#b" x="17.996"/><text y="1.67" class="f">&lt;</text><text x="1.002" y="1.67" class="g">BarChart</text><text x="10.02" y="1.67" class="g">data</text><text x="14.028" y="1.67" class="f">={</text><text x="16.032" y="1.67" class="h">my</text></svg><svg x="960"><use xlink:href="#a"/><use xlink:href="#b" x="18.996"/><text y="1.67" class="f">&lt;</text><text x="1.002" y="1.67" class="g">BarChart</text><text x="10.02" y="1.67" class="g">data</text><text x="14.028" y="1.67" class="f">={</text><text x="16.032" y="1.67" class="h">my_</text></svg><svg x="1000"><use xlink:href="#a"/><use xlink:href="#b" x="19.996"/><text y="1.67" class="f">&lt;</text><text x="1.002" y="1.67" class="g">BarChart</text><text x="10.02" y="1.67" class="g">data</text><text x="14.028" y="1.67" class="f">={</text><text x="16.032" y="1.67" class="h">my_q</text></svg><svg x="1040"><use xlink:href="#a"/><use xlink:href="#b" x="20.996"/><text y="1.67" class="f">&lt;</text><text x="1.002" y="1.67" class="g">BarChart</text><text x="10.02" y="1.67" class="g">data</text><text x="14.028" y="1.67" class="f">={</text><text x="16.032" y="1.67" class="h">my_qu</text></svg><svg x="1080"><use xlink:href="#a"/><use xlink:href="#b" x="21.996"/><text y="1.67" class="f">&lt;</text><text x="1.002" y="1.67" class="g">BarChart</text><text x="10.02" y="1.67" class="g">data</text><text x="14.028" y="1.67" class="f">={</text><text x="16.032" y="1.67" class="h">my_que</text></svg><svg x="1120"><use xlink:href="#a"/><use xlink:href="#b" x="22.996"/><text y="1.67" class="f">&lt;</text><text x="1.002" y="1.67" class="g">BarChart</text><text x="10.02" y="1.67" class="g">data</text><text x="14.028" y="1.67" class="f">={</text><text x="16.032" y="1.67" class="h">my_quer</text></svg><svg x="1160"><use xlink:href="#a"/><use xlink:href="#b" x="23.996"/><use xlink:href="#5"/></svg><svg x="1200"><use xlink:href="#a"/><use xlink:href="#b" x="23.996"/><use xlink:href="#5"/></svg><svg x="1240"><use xlink:href="#a"/><use xlink:href="#b" x="24.996"/><text y="1.67" class="f">&lt;</text><text x="1.002" y="1.67" class="g">BarChart</text><text x="10.02" y="1.67" class="g">data</text><text x="14.028" y="1.67" class="f">={</text><text x="16.032" y="1.67" class="h">my_query</text><text x="24.048" y="1.67" class="f">}</text></svg><svg x="1280"><use xlink:href="#a"/><use xlink:href="#b" x="25.996"/><text y="1.67" class="f">&lt;</text><text x="1.002" y="1.67" class="g">BarChart</text><text x="10.02" y="1.67" class="g">data</text><text x="14.028" y="1.67" class="f">={</text><text x="16.032" y="1.67" class="h">my_query</text><text x="24.048" y="1.67" class="f">}/</text></svg><svg x="1320"><use xlink:href="#a"/><use xlink:href="#b" x="26.996"/><use xlink:href="#6"/></svg><svg x="1360"><use xlink:href="#a"/><use xlink:href="#b" x="-.004" y="2.146"/><use xlink:href="#6"/></svg><svg x="1400"><use xlink:href="#a"/><use xlink:href="#b" x=".996" y="2.146"/><use xlink:href="#6"/></svg></svg></g></g></svg></svg>