<svg xmlns="http://www.w3.org/2000/svg" xmlns:xlink="http://www.w3.org/1999/xlink" width="640" height="125.13"><rect width="640" height="125.13" rx="5" ry="5" class="a"/><svg y="0%" x="0%"><circle cx="20" cy="20" r="6" fill="#ff5f58"/><circle cx="40" cy="20" r="6" fill="#ffbd2e"/><circle cx="60" cy="20" r="6" fill="#18c132"/></svg><svg height="65.13" viewBox="0 0 60 6.513" width="600" x="15" xmlns="http://www.w3.org/2000/svg" xmlns:xlink="http://www.w3.org/1999/xlink" y="50"><style>@keyframes l{0%{transform:translateX(-120px)}2.5%{transform:translateX(-180px)}5%{transform:translateX(-240px)}7.5%{transform:translateX(-300px)}10%{transform:translateX(-360px)}12.5%{transform:translateX(-420px)}15%{transform:translateX(-480px)}17.5%{transform:translateX(-540px)}20%{transform:translateX(-600px)}22.5%{transform:translateX(-660px)}25%{transform:translateX(-720px)}27.5%{transform:translateX(-780px)}30%{transform:translateX(-840px)}32.5%{transform:translateX(-900px)}35%{transform:translateX(-1020px)}37.5%{transform:translateX(-1080px)}40%{transform:translateX(-1200px)}42.5%{transform:translateX(-1260px)}45%{transform:translateX(-1320px)}47.5%{transform:translateX(-1380px)}50%{transform:translateX(-1440px)}52.5%{transform:translateX(-1500px)}55%{transform:translateX(-1560px)}57.5%{transform:translateX(-1620px)}60%{transform:translateX(-1740px)}62.5%{transform:translateX(-1800px)}65%{transform:translateX(-1860px)}67.5%{transform:translateX(-1920px)}70%{transform:translateX(-1980px)}72.5%{transform:translateX(-2040px)}to{transform:translateX(-2100px)}}.a{fill:#282d35}.f,.g,.h,.i{fill:#b9c0cb;white-space:pre}.g,.h,.i{fill:#d78787}.h,.i{fill:#eee}.i{fill:#afd7af}</style><g font-family="Monaco,Consolas,Menlo,'Bitstream Vera Sans Mono','Powerline Symbols',monospace" font-size="1.67"><defs><symbol id="1"><text y="1.67" class="f">&lt;</text></symbol><symbol id="2"><text y="1.67" class="f">&lt;</text><text x="1.002" y="1.67" class="g">LineChart</text></symbol><symbol id="3"><text y="1.67" class="f">&lt;</text><text x="1.002" y="1.67" class="g">LineChart</text><text x="11.022" y="1.67" class="g">data</text></symbol><symbol id="4"><text y="1.67" class="f">&lt;</text><text x="1.002" y="1.67" class="g">LineChart</text><text x="11.022" y="1.67" class="g">data</text><text x="15.03" y="1.67" class="h">={</text></symbol><symbol id="5"><text y="1.67" class="f">&lt;</text><text x="1.002" y="1.67" class="g">LineChart</text><text x="11.022" y="1.67" class="g">data</text><text x="15.03" y="1.67" class="h">={</text><text x="17.034" y="1.67" class="i">my_query</text></symbol><symbol id="6"><text y="1.67" class="f">&lt;</text><text x="1.002" y="1.67" class="g">LineChart</text><text x="11.022" y="1.67" class="g">data</text><text x="15.03" y="1.67" class="h">={</text><text x="17.034" y="1.67" class="i">my_query</text><text x="25.05" y="1.67" class="h">}</text></symbol><symbol id="7"><text y="1.67" class="f">&lt;</text><text x="1.002" y="1.67" class="g">LineChart</text><text x="11.022" y="1.67" class="g">data</text><text x="15.03" y="1.67" class="h">={</text><text x="17.034" y="1.67" class="i">my_query</text><text x="25.05" y="1.67" class="h">}</text><text x="27.054" y="1.67" class="h">/&gt;</text></symbol><symbol id="a"><path fill="transparent" d="M0 0h60v3H0z"/></symbol><symbol id="b"><path fill="#6f7683" d="M0 0h1.102v2.171H0z"/></symbol></defs><path class="a" d="M0 0h60v6.513H0z"/><g style="animation-duration:4s;animation-iteration-count:infinite;animation-name:l;animation-timing-function:steps(1,end)"><svg width="2160"><svg><use xlink:href="#a"/><use xlink:href="#b" x="-.004"/></svg><svg x="60"><use xlink:href="#a"/><use xlink:href="#b" x=".996"/><use xlink:href="#1"/></svg><svg x="120"><use xlink:href="#a"/><use xlink:href="#b" x=".996"/><use xlink:href="#1"/></svg><svg x="180"><use xlink:href="#a"/><use xlink:href="#b" x="1.996"/><text y="1.67" class="f">&lt;</text><text x="1.002" y="1.67" class="g">L</text></svg><svg x="240"><use xlink:href="#a"/><use xlink:href="#b" x="2.996"/><text y="1.67" class="f">&lt;</text><text x="1.002" y="1.67" class="g">Li</text></svg><svg x="300"><use xlink:href="#a"/><use xlink:href="#b" x="3.996"/><text y="1.67" class="f">&lt;</text><text x="1.002" y="1.67" class="g">Lin</text></svg><svg x="360"><use xlink:href="#a"/><use xlink:href="#b" x="4.996"/><text y="1.67" class="f">&lt;</text><text x="1.002" y="1.67" class="g">Line</text></svg><svg x="420"><use xlink:href="#a"/><use xlink:href="#b" x="5.996"/><text y="1.67" class="f">&lt;</text><text x="1.002" y="1.67" class="g">LineC</text></svg><svg x="480"><use xlink:href="#a"/><use xlink:href="#b" x="6.996"/><text y="1.67" class="f">&lt;</text><text x="1.002" y="1.67" class="g">LineCh</text></svg><svg x="540"><use xlink:href="#a"/><use xlink:href="#b" x="7.996"/><text y="1.67" class="f">&lt;</text><text x="1.002" y="1.67" class="g">LineCha</text></svg><svg x="600"><use xlink:href="#a"/><use xlink:href="#b" x="8.996"/><text y="1.67" class="f">&lt;</text><text x="1.002" y="1.67" class="g">LineChar</text></svg><svg x="660"><use xlink:href="#a"/><use xlink:href="#b" x="9.996"/><use xlink:href="#2"/></svg><svg x="720"><use xlink:href="#a"/><use xlink:href="#b" x="10.996"/><use xlink:href="#2"/></svg><svg x="780"><use xlink:href="#a"/><use xlink:href="#b" x="11.996"/><text y="1.67" class="f">&lt;</text><text x="1.002" y="1.67" class="g">LineChart</text><text x="11.022" y="1.67" class="g">d</text></svg><svg x="840"><use xlink:href="#a"/><use xlink:href="#b" x="12.996"/><text y="1.67" class="f">&lt;</text><text x="1.002" y="1.67" class="g">LineChart</text><text x="11.022" y="1.67" class="g">da</text></svg><svg x="900"><use xlink:href="#a"/><use xlink:href="#b" x="13.996"/><text y="1.67" class="f">&lt;</text><text x="1.002" y="1.67" class="g">LineChart</text><text x="11.022" y="1.67" class="g">dat</text></svg><svg x="960"><use xlink:href="#a"/><use xlink:href="#b" x="14.996"/><use xlink:href="#3"/></svg><svg x="1020"><use xlink:href="#a"/><use xlink:href="#b" x="14.996"/><use xlink:href="#3"/></svg><svg x="1080"><use xlink:href="#a"/><use xlink:href="#b" x="15.996"/><text y="1.67" class="f">&lt;</text><text x="1.002" y="1.67" class="g">LineChart</text><text x="11.022" y="1.67" class="g">data</text><text x="15.03" y="1.67" class="h">=</text></svg><svg x="1140"><use xlink:href="#a"/><use xlink:href="#b" x="16.996"/><use xlink:href="#4"/></svg><svg x="1200"><use xlink:href="#a"/><use xlink:href="#b" x="16.996"/><use xlink:href="#4"/></svg><svg x="1260"><use xlink:href="#a"/><use xlink:href="#b" x="17.996"/><text y="1.67" class="f">&lt;</text><text x="1.002" y="1.67" class="g">LineChart</text><text x="11.022" y="1.67" class="g">data</text><text x="15.03" y="1.67" class="h">={</text><text x="17.034" y="1.67" class="i">m</text></svg><svg x="1320"><use xlink:href="#a"/><use xlink:href="#b" x="18.996"/><text y="1.67" class="f">&lt;</text><text x="1.002" y="1.67" class="g">LineChart</text><text x="11.022" y="1.67" class="g">data</text><text x="15.03" y="1.67" class="h">={</text><text x="17.034" y="1.67" class="i">my</text></svg><svg x="1380"><use xlink:href="#a"/><use xlink:href="#b" x="19.996"/><text y="1.67" class="f">&lt;</text><text x="1.002" y="1.67" class="g">LineChart</text><text x="11.022" y="1.67" class="g">data</text><text x="15.03" y="1.67" class="h">={</text><text x="17.034" y="1.67" class="i">my_</text></svg><svg x="1440"><use xlink:href="#a"/><use xlink:href="#b" x="20.996"/><text y="1.67" class="f">&lt;</text><text x="1.002" y="1.67" class="g">LineChart</text><text x="11.022" y="1.67" class="g">data</text><text x="15.03" y="1.67" class="h">={</text><text x="17.034" y="1.67" class="i">my_q</text></svg><svg x="1500"><use xlink:href="#a"/><use xlink:href="#b" x="21.996"/><text y="1.67" class="f">&lt;</text><text x="1.002" y="1.67" class="g">LineChart</text><text x="11.022" y="1.67" class="g">data</text><text x="15.03" y="1.67" class="h">={</text><text x="17.034" y="1.67" class="i">my_qu</text></svg><svg x="1560"><use xlink:href="#a"/><use xlink:href="#b" x="22.996"/><text y="1.67" class="f">&lt;</text><text x="1.002" y="1.67" class="g">LineChart</text><text x="11.022" y="1.67" class="g">data</text><text x="15.03" y="1.67" class="h">={</text><text x="17.034" y="1.67" class="i">my_que</text></svg><svg x="1620"><use xlink:href="#a"/><use xlink:href="#b" x="23.996"/><text y="1.67" class="f">&lt;</text><text x="1.002" y="1.67" class="g">LineChart</text><text x="11.022" y="1.67" class="g">data</text><text x="15.03" y="1.67" class="h">={</text><text x="17.034" y="1.67" class="i">my_quer</text></svg><svg x="1680"><use xlink:href="#a"/><use xlink:href="#b" x="24.996"/><use xlink:href="#5"/></svg><svg x="1740"><use xlink:href="#a"/><use xlink:href="#b" x="24.996"/><use xlink:href="#5"/></svg><svg x="1800"><use xlink:href="#a"/><use xlink:href="#b" x="25.996"/><use xlink:href="#6"/></svg><svg x="1860"><use xlink:href="#a"/><use xlink:href="#b" x="26.996"/><use xlink:href="#6"/></svg><svg x="1920"><use xlink:href="#a"/><use xlink:href="#b" x="27.996"/><text y="1.67" class="f">&lt;</text><text x="1.002" y="1.67" class="g">LineChart</text><text x="11.022" y="1.67" class="g">data</text><text x="15.03" y="1.67" class="h">={</text><text x="17.034" y="1.67" class="i">my_query</text><text x="25.05" y="1.67" class="h">}</text><text x="27.054" y="1.67" class="h">/</text></svg><svg x="1980"><use xlink:href="#a"/><use xlink:href="#b" x="28.996"/><use xlink:href="#7"/></svg><svg x="2040"><use xlink:href="#a"/><use xlink:href="#b" x="29.996"/><use xlink:href="#7"/></svg><svg x="2100"><use xlink:href="#a"/><use xlink:href="#b" x="30.996"/><use xlink:href="#7"/></svg></svg></g></g></svg></svg>