<svg xmlns="http://www.w3.org/2000/svg" xmlns:xlink="http://www.w3.org/1999/xlink" width="440" height="146.84"><rect width="440" height="146.84" rx="5" ry="5" class="a"/><svg y="0%" x="0%"><circle cx="20" cy="20" r="6" fill="#ff5f58"/><circle cx="40" cy="20" r="6" fill="#ffbd2e"/><circle cx="60" cy="20" r="6" fill="#18c132"/></svg><svg height="86.84" viewBox="0 0 40 8.684" width="400" x="15" xmlns="http://www.w3.org/2000/svg" xmlns:xlink="http://www.w3.org/1999/xlink" y="50"><style>@keyframes k{0%{transform:translateX(0)}12.5%{transform:translateX(-80px)}13.8%{transform:translateX(-120px)}15%{transform:translateX(-200px)}16.3%{transform:translateX(-240px)}17.5%{transform:translateX(-280px)}18.8%{transform:translateX(-320px)}20%{transform:translateX(-360px)}21.3%{transform:translateX(-400px)}22.5%{transform:translateX(-440px)}23.8%{transform:translateX(-480px)}25%{transform:translateX(-520px)}26.3%{transform:translateX(-560px)}26.4%{transform:translateX(-600px)}32.5%{transform:translateX(-640px)}33.8%{transform:translateX(-680px)}35%{transform:translateX(-720px)}36.3%{transform:translateX(-760px)}37.5%{transform:translateX(-800px)}38.8%{transform:translateX(-840px)}38.9%{transform:translateX(-880px)}40%{transform:translateX(-920px)}41.3%{transform:translateX(-960px)}42.5%{transform:translateX(-1000px)}42.6%{transform:translateX(-1040px)}47.5%{transform:translateX(-1080px)}48.8%{transform:translateX(-1120px)}50%{transform:translateX(-1160px)}51.2%{transform:translateX(-1200px)}51.4%{transform:translateX(-1240px)}52.5%{transform:translateX(-1280px)}53.8%{transform:translateX(-1320px)}55%{transform:translateX(-1360px)}56.3%{transform:translateX(-1400px)}57.5%{transform:translateX(-1440px)}58.8%{transform:translateX(-1480px)}60%{transform:translateX(-1520px)}63.7%{transform:translateX(-1560px)}65%{transform:translateX(-1600px)}66.3%{transform:translateX(-1640px)}70%{transform:translateX(-1680px)}to{transform:translateX(-1720px)}}.a{fill:#282d35}.f,.g,.h{fill:#eee;white-space:pre}.g,.h{fill:#afd7af}.h{fill:#87ffff}</style><g font-family="Monaco,Consolas,Menlo,'Bitstream Vera Sans Mono','Powerline Symbols',monospace" font-size="1.67"><defs><symbol id="1"><text y="1.67" class="f">`</text></symbol><symbol id="2"><text y="1.67" class="f">``</text></symbol><symbol id="3"><text y="1.67" class="f">```</text></symbol><symbol id="4"><text y="1.67" class="f">```</text><text x="3.006" y="1.67" class="g">my_query</text></symbol><symbol id="5"><text y="1.67" class="h">select</text></symbol><symbol id="6"><text y="1.67" class="h">select</text><text x="7.014" y="1.67" class="f">*</text></symbol><symbol id="7"><text y="1.67" class="h">select</text><text x="7.014" y="1.67" class="f">*</text><text x="9.018" y="1.67" class="h">from</text></symbol><symbol id="8"><text y="1.67" class="h">select</text><text x="7.014" y="1.67" class="f">*</text><text x="9.018" y="1.67" class="h">from</text><text x="14.028" y="1.67" class="f">table</text></symbol><symbol id="a"><path fill="transparent" d="M0 0h40v4H0z"/></symbol><symbol id="b"><path fill="#6f7683" d="M0 0h1.102v2.171H0z"/></symbol></defs><path class="a" d="M0 0h40v8.684H0z"/><g style="animation-duration:8s;animation-iteration-count:infinite;animation-name:k;animation-timing-function:steps(1,end)"><svg width="1760"><svg><use xlink:href="#a"/><use xlink:href="#b" x="-.004"/></svg><svg x="40"><use xlink:href="#a"/><use xlink:href="#b" x="-.004"/></svg><svg x="80"><use xlink:href="#a"/><use xlink:href="#b" x=".996"/><use xlink:href="#1"/></svg><svg x="120"><use xlink:href="#a"/><use xlink:href="#b" x="1.996"/><use xlink:href="#2"/></svg><svg x="160"><use xlink:href="#a"/><use xlink:href="#b" x="2.996"/><use xlink:href="#3"/></svg><svg x="200"><use xlink:href="#a"/><use xlink:href="#b" x="2.996"/><use xlink:href="#3"/></svg><svg x="240"><use xlink:href="#a"/><use xlink:href="#b" x="3.996"/><text y="1.67" class="f">```</text><text x="3.006" y="1.67" class="g">m</text></svg><svg x="280"><use xlink:href="#a"/><use xlink:href="#b" x="4.996"/><text y="1.67" class="f">```</text><text x="3.006" y="1.67" class="g">my</text></svg><svg x="320"><use xlink:href="#a"/><use xlink:href="#b" x="5.996"/><text y="1.67" class="f">```</text><text x="3.006" y="1.67" class="g">my_</text></svg><svg x="360"><use xlink:href="#a"/><use xlink:href="#b" x="6.996"/><text y="1.67" class="f">```</text><text x="3.006" y="1.67" class="g">my_q</text></svg><svg x="400"><use xlink:href="#a"/><use xlink:href="#b" x="7.996"/><text y="1.67" class="f">```</text><text x="3.006" y="1.67" class="g">my_qu</text></svg><svg x="440"><use xlink:href="#a"/><use xlink:href="#b" x="8.996"/><text y="1.67" class="f">```</text><text x="3.006" y="1.67" class="g">my_que</text></svg><svg x="480"><use xlink:href="#a"/><use xlink:href="#b" x="9.996"/><text y="1.67" class="f">```</text><text x="3.006" y="1.67" class="g">my_quer</text></svg><svg x="520"><use xlink:href="#a"/><use xlink:href="#b" x="10.996"/><use xlink:href="#4"/></svg><svg x="560"><use xlink:href="#a"/><use xlink:href="#b" x="-.004" y="2.146"/><use xlink:href="#4"/></svg><svg x="600"><use xlink:href="#a"/><use xlink:href="#b" x="-.004" y="2.146"/><use xlink:href="#4"/></svg><svg x="640"><use xlink:href="#a"/><use xlink:href="#b" x=".996" y="2.146"/><use xlink:href="#4"/><text y="3.841" class="h">s</text></svg><svg x="680"><use xlink:href="#a"/><use xlink:href="#b" x="1.996" y="2.146"/><use xlink:href="#4"/><text y="3.841" class="h">se</text></svg><svg x="720"><use xlink:href="#a"/><use xlink:href="#b" x="2.996" y="2.146"/><use xlink:href="#4"/><text y="3.841" class="h">sel</text></svg><svg x="760"><use xlink:href="#a"/><use xlink:href="#b" x="3.996" y="2.146"/><use xlink:href="#4"/><text y="3.841" class="h">sele</text></svg><svg x="800"><use xlink:href="#a"/><use xlink:href="#b" x="4.996" y="2.146"/><use xlink:href="#4"/><text y="3.841" class="h">selec</text></svg><svg x="840"><use xlink:href="#a"/><use xlink:href="#b" x="5.996" y="2.146"/><use xlink:href="#4"/><use xlink:href="#5" y="2.171"/></svg><svg x="880"><use xlink:href="#a"/><use xlink:href="#b" x="5.996" y="2.146"/><use xlink:href="#4"/><use xlink:href="#5" y="2.171"/></svg><svg x="920"><use xlink:href="#a"/><use xlink:href="#b" x="6.996" y="2.146"/><use xlink:href="#4"/><use xlink:href="#5" y="2.171"/></svg><svg x="960"><use xlink:href="#a"/><use xlink:href="#b" x="7.996" y="2.146"/><use xlink:href="#4"/><use xlink:href="#6" y="2.171"/></svg><svg x="1000"><use xlink:href="#a"/><use xlink:href="#b" x="8.996" y="2.146"/><use xlink:href="#4"/><use xlink:href="#6" y="2.171"/></svg><svg x="1040"><use xlink:href="#a"/><use xlink:href="#b" x="8.996" y="2.146"/><use xlink:href="#4"/><use xlink:href="#6" y="2.171"/></svg><svg x="1080"><use xlink:href="#a"/><use xlink:href="#b" x="9.996" y="2.146"/><use xlink:href="#4"/><text y="3.841" class="h">select</text><text x="7.014" y="3.841" class="f">*</text><text x="9.018" y="3.841" class="h">f</text></svg><svg x="1120"><use xlink:href="#a"/><use xlink:href="#b" x="10.996" y="2.146"/><use xlink:href="#4"/><text y="3.841" class="h">select</text><text x="7.014" y="3.841" class="f">*</text><text x="9.018" y="3.841" class="h">fr</text></svg><svg x="1160"><use xlink:href="#a"/><use xlink:href="#b" x="11.996" y="2.146"/><use xlink:href="#4"/><text y="3.841" class="h">select</text><text x="7.014" y="3.841" class="f">*</text><text x="9.018" y="3.841" class="h">fro</text></svg><svg x="1200"><use xlink:href="#a"/><use xlink:href="#b" x="12.996" y="2.146"/><use xlink:href="#4"/><use xlink:href="#7" y="2.171"/></svg><svg x="1240"><use xlink:href="#a"/><use xlink:href="#b" x="12.996" y="2.146"/><use xlink:href="#4"/><use xlink:href="#7" y="2.171"/></svg><svg x="1280"><use xlink:href="#a"/><use xlink:href="#b" x="13.996" y="2.146"/><use xlink:href="#4"/><use xlink:href="#7" y="2.171"/></svg><svg x="1320"><use xlink:href="#a"/><use xlink:href="#b" x="14.996" y="2.146"/><use xlink:href="#4"/><text y="3.841" class="h">select</text><text x="7.014" y="3.841" class="f">*</text><text x="9.018" y="3.841" class="h">from</text><text x="14.028" y="3.841" class="f">t</text></svg><svg x="1360"><use xlink:href="#a"/><use xlink:href="#b" x="15.996" y="2.146"/><use xlink:href="#4"/><text y="3.841" class="h">select</text><text x="7.014" y="3.841" class="f">*</text><text x="9.018" y="3.841" class="h">from</text><text x="14.028" y="3.841" class="f">ta</text></svg><svg x="1400"><use xlink:href="#a"/><use xlink:href="#b" x="16.996" y="2.146"/><use xlink:href="#4"/><text y="3.841" class="h">select</text><text x="7.014" y="3.841" class="f">*</text><text x="9.018" y="3.841" class="h">from</text><text x="14.028" y="3.841" class="f">tab</text></svg><svg x="1440"><use xlink:href="#a"/><use xlink:href="#b" x="17.996" y="2.146"/><use xlink:href="#4"/><text y="3.841" class="h">select</text><text x="7.014" y="3.841" class="f">*</text><text x="9.018" y="3.841" class="h">from</text><text x="14.028" y="3.841" class="f">tabl</text></svg><svg x="1480"><use xlink:href="#a"/><use xlink:href="#b" x="18.996" y="2.146"/><use xlink:href="#4"/><use xlink:href="#8" y="2.171"/></svg><svg x="1520"><use xlink:href="#a"/><use xlink:href="#b" x="-.004" y="4.317"/><use xlink:href="#4"/><use xlink:href="#8" y="2.171"/></svg><svg x="1560"><use xlink:href="#a"/><use xlink:href="#b" x=".996" y="4.317"/><use xlink:href="#4"/><use xlink:href="#8" y="2.171"/><use xlink:href="#1" y="4.342"/></svg><svg x="1600"><use xlink:href="#a"/><use xlink:href="#b" x="1.996" y="4.317"/><use xlink:href="#4"/><use xlink:href="#8" y="2.171"/><use xlink:href="#2" y="4.342"/></svg><svg x="1640"><use xlink:href="#a"/><use xlink:href="#b" x="2.996" y="4.317"/><use xlink:href="#4"/><use xlink:href="#8" y="2.171"/><use xlink:href="#3" y="4.342"/></svg><svg x="1680"><use xlink:href="#a"/><use xlink:href="#b" x="-.004" y="6.488"/><use xlink:href="#4"/><use xlink:href="#8" y="2.171"/><use xlink:href="#3" y="4.342"/></svg><svg x="1720"><use xlink:href="#a"/><use xlink:href="#b" x="-.004" y="6.488"/><use xlink:href="#4"/><use xlink:href="#8" y="2.171"/><use xlink:href="#3" y="4.342"/></svg></svg></g></g></svg></svg>